<svg width="32" height="32" viewBox="0 0 32 32" fill="none" xmlns="http://www.w3.org/2000/svg">
<rect width="32" height="32" transform="matrix(-1 0 0 -1 32 32)" fill="#492516"/>
<path d="M19.1214 16.0977C19.1214 15.9302 19.0544 15.7762 18.9272 15.6557L13.6236 10.4593C13.5031 10.3454 13.3557 10.2852 13.1816 10.2852C12.8401 10.2852 12.5723 10.5463 12.5723 10.8945C12.5723 11.0619 12.6392 11.216 12.7464 11.3298L17.6214 16.0977L12.7464 20.8655C12.6392 20.9793 12.5723 21.1267 12.5723 21.3008C12.5723 21.649 12.8401 21.9102 13.1816 21.9102C13.3557 21.9102 13.5031 21.8499 13.6236 21.7293L18.9272 16.5396C19.0544 16.4124 19.1214 16.265 19.1214 16.0977Z" fill="white"/>
</svg>
