<svg width="32" height="32" viewBox="0 0 32 32" fill="none" xmlns="http://www.w3.org/2000/svg">
<rect width="32" height="32" fill="#A88747"/>
<rect width="32" height="32" fill="#492516"/>
<path d="M12.8786 15.9023C12.8786 16.0698 12.9456 16.2238 13.0728 16.3443L18.3764 21.5407C18.4969 21.6546 18.6443 21.7148 18.8184 21.7148C19.1599 21.7148 19.4277 21.4537 19.4277 21.1055C19.4277 20.9381 19.3608 20.784 19.2536 20.6702L14.3786 15.9023L19.2536 11.1345C19.3608 11.0207 19.4277 10.8733 19.4277 10.6992C19.4277 10.351 19.1599 10.0898 18.8184 10.0898C18.6443 10.0898 18.4969 10.1501 18.3764 10.2707L13.0728 15.4604C12.9456 15.5876 12.8786 15.735 12.8786 15.9023Z" fill="white"/>
</svg>
