<svg width="11" height="10" viewBox="0 0 11 10" fill="none" xmlns="http://www.w3.org/2000/svg">
<path d="M0.00083719 4.44559V3.79827C0.00083719 3.37863 0.259766 3.11077 0.683873 3.11077H1.55441L3.26423 0.213449C3.38477 0.0125563 3.59905 -0.000836562 3.75977 0.0839849C3.92494 0.173271 4.02316 0.360771 3.90262 0.575056L2.44727 3.11077H8.00977L6.55441 0.575056C6.43387 0.360771 6.53655 0.173271 6.69727 0.0839849C6.86244 0.00362772 7.07673 0.0170206 7.1928 0.213449L8.90262 3.11077H9.76869C10.1928 3.11077 10.4562 3.37863 10.4562 3.79827V4.44559C10.4562 4.86523 10.1928 5.12863 9.76869 5.12863L9.09905 8.35184C8.96512 8.99916 8.64816 9.60184 7.61691 9.60184H2.84012C1.80887 9.60184 1.49191 8.99916 1.35798 8.35184L0.688337 5.12863H0.683873C0.259766 5.12863 0.00083719 4.86523 0.00083719 4.44559ZM0.85798 3.82059C0.759766 3.82059 0.706194 3.87863 0.706194 3.97684V4.26256C0.706194 4.36077 0.759766 4.42327 0.85798 4.42327H9.59459C9.6928 4.42327 9.75084 4.36077 9.75084 4.26256V3.97684C9.75084 3.87863 9.6928 3.82059 9.59459 3.82059H0.85798ZM2.96512 8.88756H7.49191C8.14369 8.88756 8.32227 8.65095 8.4428 8.07952L9.04994 5.12863H1.40709L2.01423 8.07952C2.13477 8.65095 2.31334 8.88756 2.96512 8.88756ZM5.85352 8.37416C5.6928 8.36523 5.58566 8.25809 5.59459 8.11077L5.73744 5.79827C5.75084 5.64648 5.86244 5.54381 6.02762 5.5572C6.18834 5.57059 6.29548 5.67773 6.28655 5.82952L6.14369 8.13756C6.13477 8.28934 6.01423 8.38756 5.85352 8.37416ZM4.60798 8.37416C4.44727 8.38756 4.32673 8.28934 4.3178 8.13756L4.17494 5.82952C4.16602 5.67773 4.27316 5.57059 4.43387 5.5572C4.59905 5.54381 4.71066 5.64648 4.72405 5.79827L4.86691 8.11077C4.87584 8.25809 4.76869 8.36523 4.60798 8.37416ZM7.1303 8.40095C6.96512 8.37416 6.87584 8.25363 6.89816 8.11077L7.26869 5.77595C7.29548 5.62863 7.42048 5.54827 7.58119 5.57059C7.74637 5.60184 7.84012 5.71791 7.8178 5.86077L7.4428 8.19559C7.41602 8.34291 7.29102 8.42773 7.1303 8.40095ZM3.32673 8.40095C3.16155 8.42773 3.04102 8.34291 3.01423 8.19559L2.64369 5.86077C2.61691 5.71791 2.71066 5.60184 2.87584 5.57059C3.03655 5.54827 3.16155 5.62863 3.18834 5.77595L3.55887 8.11077C3.58119 8.25363 3.49191 8.37416 3.32673 8.40095Z" fill="white"/>
</svg>
