<svg width="19" height="17" viewBox="0 0 19 17" fill="none" xmlns="http://www.w3.org/2000/svg">
<path d="M5.44419 11.8931H13.2589C13.5201 11.8931 13.7478 11.6789 13.7478 11.3909C13.7478 11.103 13.5201 10.8887 13.2589 10.8887H5.55803C5.17634 10.8887 4.94197 10.6208 4.8817 10.2123L3.78348 2.7592C3.71652 2.24358 3.52902 1.98242 2.84598 1.98242H0.495536C0.227679 1.98242 0 2.2168 0 2.48466C0 2.7592 0.227679 2.99358 0.495536 2.99358H2.75893L3.83035 10.3463C3.97098 11.2971 4.47321 11.8931 5.44419 11.8931ZM4.21205 9.50919H13.2723C14.25 9.50919 14.7522 8.90651 14.8929 7.94897L15.4286 4.40653C15.4419 4.31947 15.4554 4.21233 15.4554 4.15206C15.4554 3.83063 15.2143 3.60966 14.846 3.60966H3.62946L3.63616 4.62082H14.317L13.8415 7.82839C13.7879 8.24359 13.567 8.50474 13.1719 8.50474H4.19866L4.21205 9.50919ZM5.9732 15.1476C6.57589 15.1476 7.05806 14.6722 7.05806 14.0628C7.05806 13.4601 6.57589 12.9779 5.9732 12.9779C5.36384 12.9779 4.8817 13.4601 4.8817 14.0628C4.8817 14.6722 5.36384 15.1476 5.9732 15.1476ZM12.2344 15.1476C12.8438 15.1476 13.3259 14.6722 13.3259 14.0628C13.3259 13.4601 12.8438 12.9779 12.2344 12.9779C11.6317 12.9779 11.1429 13.4601 11.1429 14.0628C11.1429 14.6722 11.6317 15.1476 12.2344 15.1476Z" fill="#A88747"/>
<path d="M14.6317 8.63171C16.9822 8.63171 18.9442 6.66966 18.9442 4.3125C18.9442 1.94866 16.9955 0 14.6317 0C12.2611 0 10.3125 1.94866 10.3125 4.3125C10.3125 6.68971 12.2544 8.63171 14.6317 8.63171Z" fill="#F9F6EF"/>
<path d="M14.6323 7.71373C16.4738 7.71373 18.0341 6.17356 18.0341 4.31194C18.0341 2.45033 16.4939 0.910156 14.6323 0.910156C12.764 0.910156 11.2305 2.45033 11.2305 4.31194C11.2305 6.18693 12.764 7.71373 14.6323 7.71373Z" fill="#A88747"/>
<path d="M14.6314 6.44925C14.3837 6.44925 14.2162 6.28182 14.2162 6.03405V4.72824H12.9105C12.6627 4.72824 12.502 4.56753 12.502 4.31306C12.502 4.06529 12.6627 3.90458 12.9105 3.90458H14.2162V2.59878C14.2162 2.351 14.3837 2.18359 14.6314 2.18359C14.8792 2.18359 15.0399 2.351 15.0399 2.59878V3.90458H16.3457C16.5935 3.90458 16.7609 4.06529 16.7609 4.31306C16.7609 4.56753 16.5935 4.72824 16.3457 4.72824H15.0399V6.03405C15.0399 6.28182 14.8792 6.44925 14.6314 6.44925Z" fill="white"/>
</svg>
