<svg width="200" height="38" viewBox="0 0 200 38" fill="none" xmlns="http://www.w3.org/2000/svg">
<path fill-rule="evenodd" clip-rule="evenodd" d="M107.054 3.58251L106.58 4.00276C106.414 3.77197 106.244 3.65658 106.072 3.65658C105.988 3.65658 105.919 3.67919 105.866 3.72363C105.812 3.76885 105.786 3.81876 105.786 3.87567C105.786 3.93181 105.805 3.98482 105.843 4.03473C105.895 4.10178 106.052 4.24524 106.313 4.46512C106.557 4.66939 106.705 4.79727 106.757 4.85028C106.887 4.98127 106.979 5.10602 107.033 5.22531C107.087 5.34461 107.115 5.47481 107.115 5.61594C107.115 5.89117 107.019 6.11806 106.828 6.29738C106.638 6.47671 106.389 6.56637 106.082 6.56637C105.843 6.56637 105.635 6.5079 105.457 6.39095C105.279 6.27321 105.126 6.08921 105 5.83815L105.539 5.5138C105.701 5.81008 105.887 5.95822 106.098 5.95822C106.208 5.95822 106.301 5.92625 106.375 5.86232C106.45 5.79838 106.488 5.72431 106.488 5.64088C106.488 5.56525 106.46 5.48885 106.403 5.41244C106.347 5.33681 106.222 5.21985 106.029 5.06314C105.663 4.7653 105.426 4.53529 105.32 4.37311C105.213 4.21094 105.159 4.04954 105.159 3.88815C105.159 3.65502 105.248 3.45542 105.425 3.28935C105.603 3.12249 105.822 3.03906 106.082 3.03906C106.25 3.03906 106.41 3.07805 106.561 3.15602C106.713 3.23399 106.877 3.37667 107.054 3.58251ZM107.676 3.12327H108.312V6.48217H107.676V3.12327ZM109.036 3.12327H109.643L111.09 5.33369V3.12327H111.726V6.48217H111.115L109.673 4.27877V6.48217H109.036V3.12327ZM115.58 3.71272L115.131 4.13843C114.826 3.81719 114.484 3.65658 114.103 3.65658C113.782 3.65658 113.51 3.76652 113.29 3.98561C113.07 4.2047 112.96 4.47447 112.96 4.79571C112.96 5.01947 113.009 5.21829 113.106 5.39139C113.204 5.56525 113.342 5.7017 113.52 5.80072C113.698 5.89974 113.896 5.94886 114.115 5.94886C114.3 5.94886 114.47 5.91456 114.624 5.84517C114.778 5.77577 114.947 5.64946 115.131 5.46702L115.566 5.9208C115.318 6.16328 115.083 6.33169 114.862 6.42525C114.642 6.5196 114.389 6.56637 114.106 6.56637C113.584 6.56637 113.156 6.40108 112.823 6.06971C112.49 5.73913 112.324 5.3142 112.324 4.79726C112.324 4.462 112.399 4.16494 112.551 3.90452C112.703 3.6441 112.919 3.43515 113.202 3.27687C113.485 3.11859 113.789 3.03906 114.115 3.03906C114.392 3.03906 114.659 3.09754 114.916 3.2145C115.173 3.33145 115.394 3.49753 115.58 3.71272ZM116.145 3.12327H117.979V3.75015H116.781V4.35362H117.979V4.97114H116.781V5.8553H117.979V6.48217H116.145V3.12327Z" fill="white"/>
<path fill-rule="evenodd" clip-rule="evenodd" d="M121.523 3.08417H122.48V6.4415H121.844V3.68269H121.152L121.523 3.08417ZM124.637 6.52567L124.094 6.25602L124.677 5.11353C124.393 5.11353 124.151 5.01144 123.952 4.80803C123.754 4.60463 123.654 4.35135 123.654 4.04897C123.654 3.75517 123.756 3.50734 123.961 3.30472C124.166 3.10131 124.413 3 124.703 3C125.006 3 125.259 3.10521 125.46 3.31563C125.662 3.52605 125.763 3.76842 125.763 4.04196C125.763 4.14561 125.747 4.24926 125.716 4.35369C125.685 4.45734 125.612 4.61866 125.5 4.83609L124.637 6.52567ZM124.716 4.51034C124.835 4.51034 124.934 4.46669 125.015 4.38019C125.096 4.29368 125.136 4.18691 125.136 4.0591C125.136 3.92818 125.094 3.81907 125.009 3.73101C124.925 3.64294 124.827 3.59852 124.714 3.59852C124.595 3.59852 124.493 3.64217 124.408 3.72945C124.323 3.81674 124.281 3.92584 124.281 4.05677C124.281 4.18614 124.322 4.29368 124.405 4.38019C124.488 4.46669 124.592 4.51034 124.716 4.51034ZM127.255 6.52567L126.712 6.25602L127.296 5.11353C127.011 5.11353 126.77 5.01144 126.571 4.80803C126.372 4.60463 126.273 4.35135 126.273 4.04897C126.273 3.75517 126.375 3.50734 126.58 3.30472C126.785 3.10131 127.032 3 127.321 3C127.625 3 127.877 3.10521 128.079 3.31563C128.281 3.52605 128.381 3.76842 128.381 4.04196C128.381 4.14561 128.366 4.24926 128.335 4.35369C128.303 4.45734 128.231 4.61866 128.119 4.83609L127.255 6.52567ZM127.335 4.51034C127.453 4.51034 127.553 4.46669 127.634 4.38019C127.714 4.29368 127.755 4.18691 127.755 4.0591C127.755 3.92818 127.713 3.81907 127.628 3.73101C127.544 3.64294 127.445 3.59852 127.332 3.59852C127.214 3.59852 127.112 3.64217 127.027 3.72945C126.942 3.81674 126.899 3.92584 126.899 4.05677C126.899 4.18614 126.94 4.29368 127.024 4.38019C127.106 4.46669 127.21 4.51034 127.335 4.51034ZM129.874 6.52567L129.331 6.25602L129.914 5.11353C129.63 5.11353 129.388 5.01144 129.19 4.80803C128.991 4.60463 128.891 4.35135 128.891 4.04897C128.891 3.75517 128.993 3.50734 129.198 3.30472C129.403 3.10131 129.65 3 129.94 3C130.243 3 130.496 3.10521 130.698 3.31563C130.899 3.52605 131 3.76842 131 4.04196C131 4.14561 130.984 4.24926 130.953 4.35369C130.922 4.45734 130.849 4.61866 130.737 4.83609L129.874 6.52567ZM129.953 4.51034C130.072 4.51034 130.171 4.46669 130.253 4.38019C130.333 4.29368 130.373 4.18691 130.373 4.0591C130.373 3.92818 130.331 3.81907 130.246 3.73101C130.162 3.64294 130.064 3.59852 129.951 3.59852C129.832 3.59852 129.73 3.64217 129.645 3.72945C129.56 3.81674 129.518 3.92584 129.518 4.05677C129.518 4.18614 129.559 4.29368 129.642 4.38019C129.725 4.46669 129.829 4.51034 129.953 4.51034Z" fill="white"/>
<path d="M77.2015 18.8033L83.2882 32.4115L94.3199 6.06974L91.7572 -0.000408173H94.762L95.8158 2.50447L96.8803 -0.000408173H99.8729L97.3129 6.06374L108.37 32.3496L114.429 18.8033L120.321 32.1559L128.144 11.6752H131.333L121.973 35.6035H118.845L114.429 25.595L109.916 35.6035H106.974H106.788H84.8422H84.6331H81.7144L77.2015 25.595L72.7848 35.6035H69.657L60.2969 11.6752H63.4864L71.3091 32.1559L77.2015 18.8033ZM105.591 32.769H99.1508L99.8366 34.5861H106.358L105.591 32.769ZM98.9972 32.3621H105.42L104.369 29.8741H98.0582L98.9972 32.3621ZM97.9046 29.4671H104.197L100.504 20.7184L99.6945 21.4584L99.6639 21.4248L99.6366 21.4536L98.4073 20.2784L97.1165 21.4584L97.0765 21.4147L97.0395 21.4536L95.8103 20.2784L94.5195 21.4584L94.4952 21.4319L94.4745 21.4536L93.2453 20.2784L91.9544 21.4584L91.9387 21.4411L91.9267 21.4536L91.1352 20.6968L87.4328 29.4671H93.4854L95.7719 23.8158L97.9046 29.4671ZM86.2106 32.3621H92.3141L93.3207 29.8741H87.2609L86.2106 32.3621ZM92.1494 32.769H86.0388L85.2717 34.5861H91.4142L92.1494 32.769ZM91.4731 19.8967L91.9566 20.3589L93.2589 19.1683L94.5127 20.3669L95.8239 19.1683L97.0934 20.3819L98.4209 19.1683L99.6811 20.3731L100.17 19.9264L95.8151 9.61153L91.4731 19.8967ZM101.838 31.1649L103.073 30.0598L104.618 31.5056L104.203 31.9493L103.065 30.8835L101.868 31.954L101.827 31.9075L101.788 31.9493L100.649 30.8835L99.4525 31.954L99.0471 31.5009L100.658 30.0598L101.838 31.1649ZM89.5497 31.1649L90.7847 30.0598L92.3297 31.5056L91.9148 31.9493L90.776 30.8835L89.5796 31.954L89.538 31.9075L89.499 31.9493L88.3601 30.8835L87.1638 31.954L86.7584 31.5009L88.3689 30.0598L89.5497 31.1649ZM92.5104 34.5861H98.7516L95.7396 26.605L92.5104 34.5861ZM100.64 24.8434C100.845 24.8434 101.031 24.9267 101.166 25.0613C101.3 25.1958 101.384 25.3818 101.384 25.5871C101.384 25.7923 101.3 25.9783 101.166 26.1129C101.031 26.2475 100.845 26.3307 100.64 26.3307C100.435 26.3307 100.249 26.2475 100.114 26.113C99.9795 25.9784 99.8963 25.7924 99.8963 25.5871C99.8963 25.3819 99.9795 25.196 100.114 25.0614C100.249 24.9267 100.435 24.8434 100.64 24.8434ZM98.0641 24.8434C98.2692 24.8434 98.4551 24.9267 98.5897 25.0613C98.7244 25.196 98.8077 25.3819 98.8077 25.5871C98.8077 25.7924 98.7244 25.9784 98.5899 26.113C98.4553 26.2475 98.2693 26.3307 98.0641 26.3307C97.8587 26.3307 97.6727 26.2475 97.5381 26.113C97.4036 25.9784 97.3204 25.7924 97.3204 25.5871C97.3204 25.3819 97.4036 25.196 97.5381 25.0614C97.6729 24.9267 97.8588 24.8434 98.0641 24.8434ZM93.1551 24.8434C93.3602 24.8434 93.5462 24.9267 93.6808 25.0613C93.8155 25.196 93.8988 25.3819 93.8988 25.5871C93.8988 25.7924 93.8155 25.9784 93.6809 26.113C93.5464 26.2475 93.3603 26.3307 93.1551 26.3307C92.9498 26.3307 92.7638 26.2475 92.6293 26.113C92.4947 25.9784 92.4114 25.7924 92.4114 25.5871C92.4114 25.3819 92.4947 25.196 92.6293 25.0614C92.764 24.9267 92.9499 24.8434 93.1551 24.8434ZM90.5792 24.8434C90.7846 24.8434 90.9705 24.9267 91.1051 25.0613C91.2396 25.1958 91.3228 25.3818 91.3228 25.5871C91.3228 25.7924 91.2396 25.9784 91.1051 26.113C90.9705 26.2475 90.7846 26.3307 90.5792 26.3307C90.3739 26.3307 90.1878 26.2475 90.0534 26.113C89.9187 25.9784 89.8356 25.7924 89.8356 25.5871C89.8356 25.3819 89.9187 25.196 90.0534 25.0614C90.188 24.9267 90.374 24.8434 90.5792 24.8434Z" fill="white"/>
<path d="M0.0329 35.8638L2.23583 37.0475L3.4195 36.7625L13.4958 29.8459C13.6015 29.7734 13.6049 29.6411 13.6114 29.5571C13.6355 29.2463 13.6415 26.8323 13.44 26.7142L9.90767 23.6272C10.4227 23.1121 12.9271 21.7038 13.086 21.2489C13.086 20.4902 12.692 19.3605 12.4777 18.5857L3.4195 12.229C2.91433 11.9066 2.73923 11.9501 2.23384 12.1661C1.7305 12.3984 0.88675 12.8605 0.295309 13.3262C0.00685979 13.5534 -5.34317e-05 13.9285 2.9658e-07 13.9935L0.0329 35.8638ZM6.53757 25.874L9.87477 28.2194C7.86598 29.425 5.85722 30.6306 3.84843 31.8362L3.51809 31.6224L3.48525 27.9947L6.53757 25.874ZM3.68289 17.3092C4.05992 17.4849 8.30109 20.2195 8.3349 20.3831C7.36536 21.2289 4.96962 22.5535 3.74278 23.2436L3.68289 17.3092ZM17.4451 36.1159L17.5437 36.5653C18.2368 36.7087 20.3556 37.2249 21.007 37.1132C22.1958 35.0126 27.2239 23.6028 27.5062 23.3039C27.6651 23.5341 27.7308 23.6929 27.7308 23.7861C28.0214 26.3539 26.952 34.1812 27.5719 35.9899C28.9924 35.8429 29.6385 36.1488 31.101 36.1488C31.9345 34.6629 31.9723 16.4988 31.9723 13.2264C31.684 12.5622 29.0643 12.4208 28.4706 12.4208C26.7105 15.6378 23.014 24.5851 21.681 25.874C21.1479 24.4001 22.0475 13.5481 21.4235 12.6126C21.197 12.1596 18.14 12.5444 17.8013 12.903C17.6535 13.2342 17.21 34.7529 17.4451 36.1159ZM38.6606 36.7159C39.2382 36.5686 40.3219 36.4822 41.1603 36.3872C41.5131 36.12 41.7264 36.108 41.7072 35.6665C41.4541 29.8592 41.6897 24.3831 41.2195 18.4268C42.4526 18.1288 48.1708 15.7786 48.3488 14.832C48.4766 14.1523 47.5006 12.4003 46.9021 11.8783C45.8107 12.0113 40.4015 14.7712 40.1619 14.0922C40.1295 13.995 37.2411 13.9613 37.2411 14.0264C37.2082 14.158 37.2082 14.3826 37.2082 14.6676C37.1529 15.1559 37.5845 32.6536 37.943 36.2271C37.9948 36.7433 38.2446 36.822 38.6606 36.7159Z" fill="white"/>
<path d="M141.969 36.6241C142.119 36.6461 143.85 37.0078 143.854 37.0078C144.145 37.0078 144.369 36.8817 145.038 36.7228C146.282 35.7751 155.379 30.434 155.379 29.3687C155.38 29.3614 154.957 26.6424 154.896 26.6069L151.526 23.5875C152.041 23.0724 154.546 21.664 154.704 21.2092L154.096 18.546C151.625 16.6338 147.854 14.2744 145.038 12.1893C144.813 12.1564 144.654 12.0633 144.369 11.9646C144.211 11.9646 144.112 12.0633 143.986 12.0633C143.555 12.4387 141.739 13.7672 141.618 13.9538C141.282 14.7647 141.524 35.8304 141.969 36.6241ZM148.572 25.9329L151.493 28.1796C151.365 28.6345 145.645 31.888 145.23 31.9388C145.169 31.8073 145.137 31.6813 145.137 31.5826C145.137 30.3332 145.197 29.1441 145.104 27.9549L148.572 25.9329ZM145.487 17.4555C145.894 17.6449 149.943 20.2934 149.953 20.3434C149.273 20.9371 146.305 22.7643 145.361 23.2039L145.487 17.4555ZM160.76 36.3706L162.642 30.4922L165.82 32.1419L169.041 30.1972L171.471 37.4209C171.728 37.0483 174.87 36.3938 175.13 35.8C175.16 35.7315 169.902 16.6937 167.256 12.7691C167.021 12.4212 166.907 12.3924 166.612 12.4396C165.413 12.6317 164.903 12.7708 163.922 13.0421C163.661 13.1141 163.517 13.327 163.459 13.5584L156.702 36.8872L160.76 36.3706ZM165.82 20.0584L168.626 28.7578C168.306 28.5561 165.998 27.1655 165.82 27.2136C165.468 27.3086 163.721 28.192 163.441 28.192L165.82 20.0584ZM177.265 36.4324L180.734 37.2653L182.274 23.2642C182.298 23.0385 182.213 22.7216 182.438 22.6231C183.674 26.4783 185.496 31.2471 187.03 35.0185C187.631 35.531 189.334 34.8593 190.397 34.523L190.699 33.4549L193.836 22.3655L195.965 37.4316C197.025 37.0852 198.794 36.9424 200.001 36.5256C198.898 30.4593 197.878 16.7667 196.691 13.2469C196.595 12.9629 196.507 12.4517 195.835 12.3833C195.712 12.3833 192.888 12.89 192.872 12.8962L192.581 13.3784L188.636 27.281C188.504 27.407 188.537 27.6042 188.406 27.6974L183.238 13.3456C183.205 13.1867 183.205 12.9894 183.112 12.8304C182.802 12.8463 179.76 12.6228 179.61 12.5729L177.205 35.9173C177.182 36.1406 177.232 36.2734 177.265 36.4324Z" fill="white"/>
</svg>
