<svg width="100" height="25" viewBox="0 0 100 25" fill="none" xmlns="http://www.w3.org/2000/svg">
<path fill-rule="evenodd" clip-rule="evenodd" d="M53.5269 5.79125L53.2898 6.00138C53.2068 5.88599 53.1222 5.82829 53.036 5.82829C52.9939 5.82829 52.9596 5.8396 52.9331 5.86182C52.9062 5.88443 52.893 5.90938 52.893 5.93784C52.893 5.96591 52.9023 5.99241 52.9214 6.01736C52.9475 6.05089 53.0259 6.12262 53.1565 6.23256C53.2785 6.3347 53.3526 6.39863 53.3787 6.42514C53.4434 6.49064 53.4894 6.55301 53.5167 6.61266C53.5436 6.6723 53.5573 6.73741 53.5573 6.80797C53.5573 6.94558 53.5097 7.05903 53.4142 7.14869C53.3191 7.23836 53.1947 7.28319 53.0411 7.28319C52.9214 7.28319 52.8173 7.25395 52.7284 7.19547C52.6396 7.13661 52.5632 7.0446 52.5 6.91907L52.7694 6.7569C52.8505 6.90504 52.9436 6.97911 53.0489 6.97911C53.1039 6.97911 53.1503 6.96313 53.1877 6.93116C53.2251 6.89919 53.2438 6.86216 53.2438 6.82044C53.2438 6.78263 53.2298 6.74442 53.2013 6.70622C53.1733 6.6684 53.1109 6.60993 53.0146 6.53157C52.8314 6.38265 52.7132 6.26764 52.6598 6.18656C52.6064 6.10547 52.5795 6.02477 52.5795 5.94407C52.5795 5.82751 52.624 5.72771 52.7125 5.64467C52.8013 5.56125 52.9109 5.51953 53.0411 5.51953C53.1249 5.51953 53.2048 5.53903 53.2805 5.57801C53.3565 5.61699 53.4384 5.68834 53.5269 5.79125ZM53.8379 5.56164H54.1561V7.24109H53.8379V5.56164ZM54.5182 5.56164H54.8215L55.5451 6.66684V5.56164H55.8632V7.24109H55.5575L54.8363 6.13938V7.24109H54.5182V5.56164ZM57.7898 5.85636L57.5656 6.06921C57.4132 5.9086 57.2421 5.82829 57.0514 5.82829C56.8908 5.82829 56.7551 5.88326 56.6452 5.9928C56.5349 6.10235 56.4799 6.23724 56.4799 6.39785C56.4799 6.50974 56.5045 6.60915 56.5532 6.69569C56.6019 6.78263 56.6709 6.85085 56.7598 6.90036C56.8491 6.94987 56.9481 6.97443 57.0573 6.97443C57.1501 6.97443 57.235 6.95728 57.3118 6.92258C57.389 6.88789 57.4736 6.82473 57.5656 6.73351L57.7828 6.9604C57.6588 7.08164 57.5415 7.16584 57.4311 7.21263C57.3208 7.2598 57.1945 7.28319 57.053 7.28319C56.7918 7.28319 56.5778 7.20054 56.4113 7.03486C56.2448 6.86956 56.1618 6.6571 56.1618 6.39863C56.1618 6.231 56.1996 6.08247 56.2756 5.95226C56.3513 5.82205 56.4596 5.71757 56.6012 5.63843C56.7423 5.5593 56.8943 5.51953 57.0577 5.51953C57.1961 5.51953 57.3294 5.54877 57.458 5.60725C57.5863 5.66572 57.697 5.74876 57.7898 5.85636ZM58.0724 5.56164H58.9893V5.87507H58.3905V6.17681H58.9893V6.48557H58.3905V6.92765H58.9893V7.24109H58.0724V5.56164Z" fill="#492516"/>
<path fill-rule="evenodd" clip-rule="evenodd" d="M60.7632 5.54208H61.2421V7.22075H60.9241V5.84135H60.5781L60.7632 5.54208ZM62.3203 7.26283L62.0487 7.12801L62.3406 6.55676C62.1983 6.55676 62.0775 6.50572 61.9782 6.40402C61.8788 6.30232 61.8289 6.17568 61.8289 6.02449C61.8289 5.87758 61.88 5.75367 61.9825 5.65236C62.0849 5.55066 62.2085 5.5 62.3534 5.5C62.505 5.5 62.6313 5.5526 62.7322 5.65781C62.8331 5.76302 62.8834 5.88421 62.8834 6.02098C62.8834 6.07281 62.8756 6.12463 62.86 6.17685C62.8444 6.22867 62.8082 6.30933 62.7521 6.41805L62.3203 7.26283ZM62.3601 6.25517C62.4193 6.25517 62.4692 6.23335 62.5097 6.19009C62.5498 6.14684 62.5701 6.09346 62.5701 6.02955C62.5701 5.96409 62.549 5.90954 62.5066 5.8655C62.4645 5.82147 62.4154 5.79926 62.3589 5.79926C62.2997 5.79926 62.2486 5.82108 62.2061 5.86473C62.1637 5.90837 62.1422 5.96292 62.1422 6.02838C62.1422 6.09307 62.1629 6.14684 62.2046 6.19009C62.2459 6.23335 62.2977 6.25517 62.3601 6.25517ZM63.6296 7.26283L63.358 7.12801L63.6498 6.55676C63.5076 6.55676 63.3868 6.50572 63.2874 6.40402C63.1881 6.30232 63.1382 6.17568 63.1382 6.02449C63.1382 5.87758 63.1893 5.75367 63.2917 5.65236C63.3942 5.55066 63.5177 5.5 63.6627 5.5C63.8143 5.5 63.9405 5.5526 64.0414 5.65781C64.1424 5.76302 64.1926 5.88421 64.1926 6.02098C64.1926 6.07281 64.1848 6.12463 64.1693 6.17685C64.1537 6.22867 64.1174 6.30933 64.0613 6.41805L63.6296 7.26283ZM63.6693 6.25517C63.7285 6.25517 63.7784 6.23335 63.8189 6.19009C63.8591 6.14684 63.8793 6.09346 63.8793 6.02955C63.8793 5.96409 63.8583 5.90954 63.8158 5.8655C63.7737 5.82147 63.7246 5.79926 63.6681 5.79926C63.6089 5.79926 63.5579 5.82108 63.5154 5.86473C63.4729 5.90837 63.4515 5.96292 63.4515 6.02838C63.4515 6.09307 63.4721 6.14684 63.5138 6.19009C63.5551 6.23335 63.607 6.25517 63.6693 6.25517ZM64.9388 7.26283L64.6672 7.12801L64.9591 6.55676C64.8169 6.55676 64.6961 6.50572 64.5967 6.40402C64.4974 6.30232 64.4475 6.17568 64.4475 6.02449C64.4475 5.87758 64.4985 5.75367 64.601 5.65236C64.7035 5.55066 64.827 5.5 64.972 5.5C65.1235 5.5 65.2498 5.5526 65.3507 5.65781C65.4516 5.76302 65.5019 5.88421 65.5019 6.02098C65.5019 6.07281 65.4941 6.12463 65.4785 6.17685C65.4629 6.22867 65.4267 6.30933 65.3706 6.41805L64.9388 7.26283ZM64.9786 6.25517C65.0378 6.25517 65.0877 6.23335 65.1282 6.19009C65.1684 6.14684 65.1886 6.09346 65.1886 6.02955C65.1886 5.96409 65.1676 5.90954 65.1251 5.8655C65.083 5.82147 65.0339 5.79926 64.9774 5.79926C64.9182 5.79926 64.8671 5.82108 64.8247 5.86473C64.7822 5.90837 64.7608 5.96292 64.7608 6.02838C64.7608 6.09307 64.7814 6.14684 64.8231 6.19009C64.8644 6.23335 64.9162 6.25517 64.9786 6.25517Z" fill="#492516"/>
<path d="M38.6008 13.4007L41.6441 20.2048L47.1599 7.03389L45.8786 3.99882H47.381L47.9079 5.25126L48.4402 3.99882H49.9365L48.6564 7.03089L54.1848 20.1738L57.2143 13.4007L60.1605 20.077L64.0719 9.8366H65.6666L60.9866 21.8008H59.4227L57.2143 16.7965L54.9579 21.8008H53.4871H53.394H42.4211H42.3166H40.8572L38.6008 16.7965L36.3924 21.8008H34.8285L30.1484 9.8366H31.7432L35.6545 20.077L38.6008 13.4007ZM52.7957 20.3835H49.5754L49.9183 21.2921H53.1792L52.7957 20.3835ZM49.4986 20.1801H52.7098L52.1846 18.9361H49.0291L49.4986 20.1801ZM48.9523 18.7326H52.0987L50.252 14.3582L49.8473 14.7282L49.8319 14.7114L49.8183 14.7258L49.2037 14.1382L48.5582 14.7282L48.5383 14.7064L48.5198 14.7258L47.9051 14.1382L47.2597 14.7282L47.2476 14.715L47.2373 14.7258L46.6226 14.1382L45.9772 14.7282L45.9693 14.7196L45.9634 14.7258L45.5676 14.3474L43.7164 18.7326H46.7427L47.8859 15.9069L48.9523 18.7326ZM43.1053 20.1801H46.157L46.6603 18.9361H43.6305L43.1053 20.1801ZM46.0747 20.3835H43.0194L42.6358 21.2921H45.7071L46.0747 20.3835ZM45.7365 13.9474L45.9783 14.1785L46.6294 13.5831L47.2563 14.1825L47.912 13.5831L48.5467 14.19L49.2105 13.5831L49.8405 14.1856L50.0848 13.9622L47.9075 8.80479L45.7365 13.9474ZM50.9192 19.5815L51.5367 19.0289L52.3092 19.7518L52.1017 19.9737L51.5323 19.4408L50.9341 19.976L50.9134 19.9528L50.8939 19.9737L50.3244 19.4408L49.7262 19.976L49.5236 19.7495L50.3288 19.0289L50.9192 19.5815ZM44.7749 19.5815L45.3923 19.0289L46.1649 19.7518L45.9574 19.9737L45.388 19.4408L44.7898 19.976L44.769 19.9528L44.7495 19.9737L44.1801 19.4408L43.5819 19.976L43.3792 19.7495L44.1845 19.0289L44.7749 19.5815ZM46.2552 21.2921H49.3758L47.8698 17.3015L46.2552 21.2921ZM50.32 16.4207C50.4226 16.4207 50.5156 16.4624 50.5829 16.5297C50.6502 16.5969 50.6918 16.6899 50.6918 16.7926C50.6918 16.8952 50.6502 16.9882 50.5829 17.0555C50.5155 17.1228 50.4226 17.1644 50.32 17.1644C50.2173 17.1644 50.1243 17.1228 50.057 17.0555C49.9897 16.9882 49.9481 16.8952 49.9481 16.7926C49.9481 16.69 49.9897 16.597 50.057 16.5297C50.1244 16.4624 50.2174 16.4207 50.32 16.4207ZM49.032 16.4207C49.1346 16.4207 49.2276 16.4624 49.2949 16.5297C49.3622 16.597 49.4038 16.69 49.4038 16.7926C49.4038 16.8952 49.3622 16.9882 49.2949 17.0555C49.2277 17.1228 49.1346 17.1644 49.032 17.1644C48.9294 17.1644 48.8364 17.1228 48.769 17.0555C48.7018 16.9882 48.6602 16.8952 48.6602 16.7926C48.6602 16.69 48.7018 16.597 48.769 16.5297C48.8364 16.4624 48.9294 16.4207 49.032 16.4207ZM46.5775 16.4207C46.6801 16.4207 46.7731 16.4624 46.8404 16.5297C46.9077 16.597 46.9494 16.69 46.9494 16.7926C46.9494 16.8952 46.9077 16.9882 46.8405 17.0555C46.7732 17.1228 46.6802 17.1644 46.5775 17.1644C46.4749 17.1644 46.3819 17.1228 46.3146 17.0555C46.2473 16.9882 46.2057 16.8952 46.2057 16.7926C46.2057 16.69 46.2473 16.597 46.3146 16.5297C46.382 16.4624 46.4749 16.4207 46.5775 16.4207ZM45.2896 16.4207C45.3923 16.4207 45.4852 16.4624 45.5525 16.5297C45.6198 16.5969 45.6614 16.6899 45.6614 16.7926C45.6614 16.8952 45.6198 16.9882 45.5525 17.0555C45.4852 17.1228 45.3923 17.1644 45.2896 17.1644C45.187 17.1644 45.0939 17.1228 45.0267 17.0555C44.9594 16.9882 44.9178 16.8952 44.9178 16.7926C44.9178 16.69 44.9594 16.597 45.0267 16.5297C45.094 16.4624 45.187 16.4207 45.2896 16.4207Z" fill="#492516"/>
<path d="M0.01645 21.9319L1.11792 22.5237L1.70975 22.3812L6.74789 18.923C6.80073 18.8867 6.80246 18.8205 6.80571 18.7786C6.81774 18.6231 6.82073 17.4161 6.72001 17.3571L4.95384 15.8136C5.21137 15.556 6.46354 14.8519 6.54298 14.6245C6.54298 14.2451 6.34602 13.6803 6.23887 13.2928L1.70975 10.1145C1.45716 9.9533 1.36961 9.97505 1.11692 10.0831C0.865249 10.1992 0.443375 10.4303 0.147655 10.6631C0.00342989 10.7767 -2.67159e-05 10.9642 1.4829e-07 10.9968L0.01645 21.9319ZM3.26878 16.937L4.93739 18.1097C3.93299 18.7125 2.92861 19.3153 1.92422 19.9181L1.75905 19.8112L1.74262 17.9973L3.26878 16.937ZM1.84145 12.6546C2.02996 12.7424 4.15055 14.1098 4.16745 14.1916C3.68268 14.6144 2.48481 15.2768 1.87139 15.6218L1.84145 12.6546ZM8.72254 22.058L8.77183 22.2826C9.1184 22.3543 10.1778 22.6124 10.5035 22.5566C11.0979 21.5063 13.612 15.8014 13.7531 15.6519C13.8325 15.767 13.8654 15.8465 13.8654 15.8931C14.0107 17.177 13.476 21.0906 13.786 21.9949C14.4962 21.9215 14.8192 22.0744 15.5505 22.0744C15.9673 21.3315 15.9861 12.2494 15.9861 10.6132C15.842 10.2811 14.5322 10.2104 14.2353 10.2104C13.3553 11.8189 11.507 16.2926 10.8405 16.937C10.5739 16.2 11.0238 10.7741 10.7117 10.3063C10.5985 10.0798 9.06999 10.2722 8.90063 10.4515C8.82676 10.6171 8.60499 21.3765 8.72254 22.058ZM19.3303 22.358C19.6191 22.2843 20.161 22.2411 20.5801 22.1936C20.7566 22.06 20.8632 22.054 20.8536 21.8333C20.727 18.9296 20.8448 16.1915 20.6098 13.2134C21.2263 13.0644 24.0854 11.8893 24.1744 11.416C24.2383 11.0762 23.7503 10.2002 23.451 9.93916C22.9053 10.0056 20.2007 11.3856 20.0809 11.0461C20.0647 10.9975 18.6205 10.9806 18.6205 11.0132C18.6041 11.079 18.6041 11.1913 18.6041 11.3338C18.5765 11.5779 18.7923 20.3268 18.9715 22.1136C18.9974 22.3716 19.1223 22.411 19.3303 22.358Z" fill="#492516"/>
<path d="M70.9846 22.3111C71.0597 22.3221 71.9249 22.5029 71.9271 22.5029C72.0724 22.5029 72.1847 22.4399 72.519 22.3604C73.1409 21.8866 77.6893 19.216 77.6893 18.6834C77.69 18.6797 77.4784 17.3202 77.4481 17.3025L75.7631 15.7928C76.0206 15.5352 77.2728 14.831 77.3522 14.6036L77.0481 13.272C75.8123 12.3159 73.9268 11.1362 72.519 10.0937C72.4066 10.0772 72.3272 10.0307 72.1847 9.98134C72.1053 9.98134 72.0559 10.0307 71.9929 10.0307C71.7777 10.2184 70.8695 10.8826 70.8092 10.9759C70.6411 11.3814 70.7619 21.9142 70.9846 22.3111ZM74.2862 16.9655L75.7466 18.0888C75.6827 18.3163 72.8223 19.943 72.6149 19.9684C72.5847 19.9027 72.5683 19.8397 72.5683 19.7903C72.5683 19.1656 72.5984 18.5711 72.5519 17.9765L74.2862 16.9655ZM72.7436 12.7268C72.947 12.8215 74.9715 14.1457 74.9767 14.1707C74.6364 14.4676 73.1524 15.3812 72.6806 15.601L72.7436 12.7268ZM80.3801 22.1843L81.321 19.2451L82.9102 20.07L84.5205 19.0976L85.7356 22.7095C85.8642 22.5232 87.435 22.1959 87.5648 21.899C87.5798 21.8648 84.9511 12.3459 83.6279 10.3836C83.5106 10.2096 83.4534 10.1952 83.306 10.2188C82.7063 10.3149 82.4515 10.3844 81.9609 10.5201C81.8305 10.5561 81.7587 10.6625 81.7295 10.7782L78.3509 22.4426L80.3801 22.1843ZM82.9102 14.0282L84.313 18.3779C84.153 18.2771 82.9991 17.5818 82.9102 17.6058C82.7342 17.6533 81.8604 18.095 81.7207 18.095L82.9102 14.0282ZM88.6324 22.2152L90.3668 22.6317L91.1368 15.6311C91.1492 15.5183 91.1066 15.3598 91.219 15.3106C91.8372 17.2382 92.7481 19.6226 93.515 21.5083C93.8153 21.7645 94.6669 21.4287 95.1984 21.2605L95.3495 20.7265L96.918 15.1818L97.9826 22.7148C98.5126 22.5416 99.3968 22.4702 100 22.2618C99.4491 19.2287 98.939 12.3824 98.3455 10.6225C98.2977 10.4805 98.2535 10.2249 97.9174 10.1907C97.8559 10.1907 96.4441 10.444 96.4358 10.4471L96.2906 10.6882L94.3178 17.6395C94.2521 17.7025 94.2685 17.8011 94.2028 17.8477L91.619 10.6718C91.6025 10.5924 91.6025 10.4937 91.556 10.4142C91.401 10.4222 89.88 10.3104 89.8052 10.2855L88.6023 21.9577C88.5908 22.0693 88.616 22.1357 88.6324 22.2152Z" fill="#492516"/>
</svg>
