<svg width="9" height="9" viewBox="0 0 9 9" fill="none" xmlns="http://www.w3.org/2000/svg">
<path d="M-0.00027867 3.5625C-0.00027867 1.59821 1.59794 4.54485e-07 3.56222 4.54485e-07C5.52651 4.54485e-07 7.12472 1.59821 7.12472 3.5625C7.12472 4.375 6.8524 5.12054 6.39258 5.71875L8.57561 7.91518C8.66936 8.00893 8.72294 8.13839 8.72294 8.28125C8.72294 8.58036 8.51311 8.80804 8.20954 8.80804C8.06669 8.80804 7.93276 8.75893 7.83008 8.65625L5.63365 6.45536C5.04883 6.875 4.33901 7.125 3.56222 7.125C1.59794 7.125 -0.00027867 5.52679 -0.00027867 3.5625ZM0.763114 3.5625C0.763114 5.10714 2.01758 6.36161 3.56222 6.36161C5.10686 6.36161 6.36133 5.10714 6.36133 3.5625C6.36133 2.01786 5.10686 0.763393 3.56222 0.763393C2.01758 0.763393 0.763114 2.01786 0.763114 3.5625Z" fill="#492516"/>
</svg>
